<?xml version="1.0" encoding="UTF-8" standalone="no"?>
<!DOCTYPE svg PUBLIC "-//W3C//DTD SVG 1.1//EN" "http://www.w3.org/Graphics/SVG/1.1/DTD/svg11.dtd">
<svg width="100%" height="100%" viewBox="0 0 4147 689" version="1.1" xmlns="http://www.w3.org/2000/svg" xmlns:xlink="http://www.w3.org/1999/xlink" xml:space="preserve" xmlns:serif="http://www.serif.com/" style="fill-rule:evenodd;clip-rule:evenodd;stroke-linejoin:round;stroke-miterlimit:2;">
    <g transform="matrix(4.16667,0,0,4.16667,-63.2362,-1190.5)">
        <g transform="matrix(2.41514,0,0,2.41514,-589.049,-639.531)">
            <g>
                <g transform="matrix(1,0,0,1,31.08,32.3679)">
                    <g transform="matrix(64,0,0,64,220.062,395.728)">
                        <path d="M0.15,-0.703L0.15,-0.383C0.161,-0.402 0.177,-0.419 0.199,-0.435C0.236,-0.466 0.28,-0.481 0.332,-0.481C0.384,-0.481 0.426,-0.461 0.458,-0.42C0.49,-0.383 0.506,-0.336 0.506,-0.278C0.506,-0.205 0.48,-0.139 0.427,-0.08C0.374,-0.021 0.311,0.009 0.238,0.009C0.19,0.009 0.149,-0.003 0.116,-0.027L0.08,0.009L0.067,0.009L0.067,-0.64C0.066,-0.663 0.055,-0.675 0.032,-0.675L-0.015,-0.675L-0.015,-0.703L0.15,-0.703ZM0.273,-0.042C0.315,-0.045 0.35,-0.064 0.378,-0.101C0.405,-0.138 0.419,-0.183 0.419,-0.236C0.419,-0.289 0.408,-0.332 0.387,-0.363C0.362,-0.398 0.327,-0.416 0.282,-0.416C0.247,-0.416 0.216,-0.404 0.187,-0.38C0.162,-0.357 0.15,-0.337 0.15,-0.32L0.15,-0.096C0.15,-0.084 0.162,-0.072 0.187,-0.059C0.212,-0.047 0.24,-0.041 0.273,-0.042Z" style="fill-rule:nonzero;"/>
                    </g>
                    <g transform="matrix(64,0,0,64,255.134,395.728)">
                        <path d="M0.447,-0.136C0.454,-0.091 0.429,-0.054 0.373,-0.025C0.33,-0.002 0.283,0.01 0.234,0.01C0.185,0.01 0.143,-0.001 0.108,-0.023C0.068,-0.048 0.048,-0.085 0.048,-0.134C0.048,-0.183 0.073,-0.221 0.122,-0.246C0.082,-0.266 0.062,-0.299 0.062,-0.344C0.062,-0.389 0.081,-0.422 0.12,-0.445C0.151,-0.463 0.186,-0.472 0.225,-0.472C0.264,-0.472 0.304,-0.468 0.347,-0.461C0.402,-0.449 0.429,-0.434 0.429,-0.416C0.429,-0.407 0.425,-0.394 0.416,-0.378C0.406,-0.361 0.398,-0.353 0.391,-0.353C0.383,-0.353 0.361,-0.359 0.326,-0.37C0.291,-0.381 0.263,-0.386 0.242,-0.386C0.15,-0.386 0.104,-0.364 0.104,-0.32C0.104,-0.306 0.11,-0.293 0.123,-0.281C0.135,-0.269 0.147,-0.263 0.159,-0.263C0.171,-0.263 0.187,-0.266 0.207,-0.273C0.227,-0.279 0.243,-0.282 0.254,-0.282C0.289,-0.282 0.307,-0.27 0.307,-0.247C0.307,-0.218 0.285,-0.203 0.241,-0.203C0.228,-0.203 0.215,-0.205 0.203,-0.209L0.163,-0.223C0.146,-0.223 0.129,-0.217 0.114,-0.203C0.098,-0.191 0.09,-0.176 0.09,-0.161C0.09,-0.132 0.109,-0.111 0.148,-0.096C0.177,-0.084 0.209,-0.078 0.242,-0.078C0.321,-0.078 0.39,-0.097 0.447,-0.136Z" style="fill-rule:nonzero;"/>
                    </g>
                    <g transform="matrix(64,0,0,64,285.79,395.728)">
                        <path d="M0.272,-0.027L0.272,0L0.028,0L0.028,-0.027L0.086,-0.027C0.101,-0.027 0.109,-0.035 0.109,-0.05L0.108,-0.627C0.107,-0.65 0.096,-0.661 0.074,-0.661L0.027,-0.661L0.027,-0.688L0.191,-0.688L0.191,-0.05C0.191,-0.035 0.199,-0.027 0.214,-0.027L0.272,-0.027Z" style="fill-rule:nonzero;"/>
                    </g>
                    <g transform="matrix(64,0,0,64,304.03,395.728)">
                        <path d="M0.272,-0.027L0.272,0L0.028,0L0.028,-0.027L0.086,-0.027C0.101,-0.027 0.109,-0.035 0.109,-0.05L0.108,-0.627C0.107,-0.65 0.096,-0.661 0.074,-0.661L0.027,-0.661L0.027,-0.688L0.191,-0.688L0.191,-0.05C0.191,-0.035 0.199,-0.027 0.214,-0.027L0.272,-0.027Z" style="fill-rule:nonzero;"/>
                    </g>
                    <g transform="matrix(64,0,0,64,322.27,395.728)">
                        <path d="M0.447,-0.136C0.454,-0.091 0.429,-0.054 0.373,-0.025C0.33,-0.002 0.283,0.01 0.234,0.01C0.185,0.01 0.143,-0.001 0.108,-0.023C0.068,-0.048 0.048,-0.085 0.048,-0.134C0.048,-0.183 0.073,-0.221 0.122,-0.246C0.082,-0.266 0.062,-0.299 0.062,-0.344C0.062,-0.389 0.081,-0.422 0.12,-0.445C0.151,-0.463 0.186,-0.472 0.225,-0.472C0.264,-0.472 0.304,-0.468 0.347,-0.461C0.402,-0.449 0.429,-0.434 0.429,-0.416C0.429,-0.407 0.425,-0.394 0.416,-0.378C0.406,-0.361 0.398,-0.353 0.391,-0.353C0.383,-0.353 0.361,-0.359 0.326,-0.37C0.291,-0.381 0.263,-0.386 0.242,-0.386C0.15,-0.386 0.104,-0.364 0.104,-0.32C0.104,-0.306 0.11,-0.293 0.123,-0.281C0.135,-0.269 0.147,-0.263 0.159,-0.263C0.171,-0.263 0.187,-0.266 0.207,-0.273C0.227,-0.279 0.243,-0.282 0.254,-0.282C0.289,-0.282 0.307,-0.27 0.307,-0.247C0.307,-0.218 0.285,-0.203 0.241,-0.203C0.228,-0.203 0.215,-0.205 0.203,-0.209L0.163,-0.223C0.146,-0.223 0.129,-0.217 0.114,-0.203C0.098,-0.191 0.09,-0.176 0.09,-0.161C0.09,-0.132 0.109,-0.111 0.148,-0.096C0.177,-0.084 0.209,-0.078 0.242,-0.078C0.321,-0.078 0.39,-0.097 0.447,-0.136Z" style="fill-rule:nonzero;"/>
                    </g>
                    <g transform="matrix(64,0,0,64,352.926,395.728)">
                        <path d="M0.107,-0.05L0.107,-0.395C0.106,-0.418 0.095,-0.429 0.073,-0.429L0.027,-0.429L0.027,-0.457L0.191,-0.457L0.191,-0.365C0.198,-0.383 0.212,-0.402 0.232,-0.423C0.262,-0.453 0.294,-0.468 0.327,-0.468C0.347,-0.468 0.363,-0.461 0.375,-0.448C0.387,-0.435 0.393,-0.419 0.393,-0.4C0.393,-0.363 0.376,-0.343 0.343,-0.34C0.33,-0.369 0.308,-0.384 0.277,-0.384C0.255,-0.384 0.235,-0.373 0.217,-0.351C0.199,-0.329 0.19,-0.304 0.19,-0.276L0.19,-0.05C0.192,-0.035 0.2,-0.027 0.213,-0.027L0.271,-0.027L0.271,0L0.028,0L0.028,-0.027L0.084,-0.027C0.096,-0.027 0.104,-0.035 0.107,-0.05Z" style="fill-rule:nonzero;"/>
                    </g>
                    <g transform="matrix(64,0,0,64,378.974,395.728)">
                        <path d="M0.45,-0.406C0.492,-0.362 0.513,-0.306 0.513,-0.238C0.513,-0.17 0.491,-0.111 0.447,-0.062C0.4,-0.011 0.343,0.015 0.276,0.015C0.209,0.015 0.154,-0.007 0.109,-0.051C0.065,-0.095 0.043,-0.153 0.043,-0.224C0.043,-0.295 0.065,-0.355 0.108,-0.402C0.151,-0.449 0.209,-0.473 0.281,-0.473C0.353,-0.473 0.409,-0.451 0.45,-0.406ZM0.381,-0.105C0.406,-0.155 0.418,-0.205 0.418,-0.257C0.418,-0.308 0.41,-0.349 0.394,-0.381C0.374,-0.421 0.343,-0.441 0.301,-0.441C0.25,-0.441 0.207,-0.41 0.174,-0.349C0.148,-0.297 0.135,-0.246 0.135,-0.196C0.135,-0.145 0.145,-0.103 0.164,-0.07C0.187,-0.03 0.219,-0.01 0.261,-0.01C0.31,-0.01 0.35,-0.042 0.381,-0.105Z" style="fill-rule:nonzero;"/>
                    </g>
                    <g transform="matrix(64,0,0,64,413.278,395.728)">
                        <path d="M0.292,-0.47C0.357,-0.47 0.411,-0.449 0.455,-0.407C0.498,-0.365 0.519,-0.309 0.519,-0.239C0.519,-0.17 0.497,-0.11 0.453,-0.059C0.409,-0.009 0.35,0.016 0.277,0.016C0.191,0.016 0.125,-0.032 0.08,-0.127C0.08,-0.068 0.091,-0.014 0.113,0.035C0.126,0.066 0.147,0.098 0.176,0.133C0.198,0.162 0.209,0.182 0.209,0.193C0.209,0.204 0.203,0.214 0.192,0.223C0.181,0.232 0.168,0.237 0.153,0.237C0.107,0.237 0.075,0.185 0.057,0.082C0.046,0.023 0.041,-0.05 0.041,-0.135C0.041,-0.22 0.06,-0.294 0.097,-0.357C0.142,-0.432 0.207,-0.47 0.292,-0.47ZM0.388,-0.104C0.412,-0.153 0.424,-0.204 0.424,-0.255C0.424,-0.306 0.416,-0.347 0.4,-0.378C0.379,-0.419 0.348,-0.439 0.307,-0.439C0.253,-0.439 0.21,-0.408 0.178,-0.347C0.151,-0.296 0.138,-0.245 0.138,-0.193C0.138,-0.141 0.149,-0.098 0.171,-0.065C0.193,-0.031 0.225,-0.014 0.268,-0.014C0.317,-0.014 0.357,-0.044 0.388,-0.104Z" style="fill-rule:nonzero;"/>
                    </g>
                    <g transform="matrix(64,0,0,64,448.094,395.728)">
                        <path d="M0.589,-0.028L0.589,0L0.341,0L0.341,-0.028L0.4,-0.028C0.413,-0.028 0.421,-0.036 0.423,-0.051C0.422,-0.079 0.422,-0.156 0.422,-0.281C0.422,-0.322 0.411,-0.355 0.39,-0.38C0.369,-0.405 0.343,-0.417 0.313,-0.417C0.282,-0.417 0.252,-0.402 0.223,-0.373C0.198,-0.346 0.185,-0.326 0.185,-0.313L0.185,-0.051C0.187,-0.036 0.195,-0.028 0.208,-0.028L0.268,-0.028L0.268,0L0.019,0L0.019,-0.028L0.078,-0.028C0.091,-0.028 0.099,-0.036 0.102,-0.051L0.1,-0.641C0.099,-0.664 0.088,-0.675 0.066,-0.675L0.018,-0.675L0.018,-0.703L0.184,-0.703L0.184,-0.378C0.22,-0.444 0.272,-0.477 0.341,-0.477C0.452,-0.477 0.507,-0.416 0.505,-0.295C0.504,-0.254 0.505,-0.172 0.507,-0.051C0.509,-0.036 0.517,-0.028 0.53,-0.028L0.589,-0.028Z" style="fill-rule:nonzero;"/>
                    </g>
                    <g transform="matrix(64,0,0,64,486.622,395.728)">
                        <path d="M0.45,-0.406C0.492,-0.362 0.513,-0.306 0.513,-0.238C0.513,-0.17 0.491,-0.111 0.447,-0.062C0.4,-0.011 0.343,0.015 0.276,0.015C0.209,0.015 0.154,-0.007 0.109,-0.051C0.065,-0.095 0.043,-0.153 0.043,-0.224C0.043,-0.295 0.065,-0.355 0.108,-0.402C0.151,-0.449 0.209,-0.473 0.281,-0.473C0.353,-0.473 0.409,-0.451 0.45,-0.406ZM0.381,-0.105C0.406,-0.155 0.418,-0.205 0.418,-0.257C0.418,-0.308 0.41,-0.349 0.394,-0.381C0.374,-0.421 0.343,-0.441 0.301,-0.441C0.25,-0.441 0.207,-0.41 0.174,-0.349C0.148,-0.297 0.135,-0.246 0.135,-0.196C0.135,-0.145 0.145,-0.103 0.164,-0.07C0.187,-0.03 0.219,-0.01 0.261,-0.01C0.31,-0.01 0.35,-0.042 0.381,-0.105Z" style="fill-rule:nonzero;"/>
                    </g>
                    <g transform="matrix(64,0,0,64,520.926,395.728)">
                        <path d="M0.572,-0.027L0.572,0L0.328,0L0.328,-0.027L0.387,-0.027C0.4,-0.027 0.407,-0.035 0.409,-0.05L0.409,-0.287C0.409,-0.326 0.399,-0.356 0.379,-0.378C0.359,-0.399 0.333,-0.41 0.302,-0.41C0.271,-0.41 0.242,-0.4 0.215,-0.379C0.19,-0.358 0.177,-0.338 0.177,-0.319L0.177,-0.05C0.179,-0.035 0.187,-0.027 0.2,-0.027L0.258,-0.027L0.258,0L0.014,0L0.014,-0.027L0.072,-0.027C0.085,-0.027 0.093,-0.035 0.095,-0.05L0.095,-0.396C0.094,-0.419 0.083,-0.43 0.061,-0.43L0.014,-0.43L0.014,-0.457L0.178,-0.457L0.178,-0.43C0.177,-0.422 0.177,-0.413 0.177,-0.402L0.177,-0.382C0.182,-0.395 0.196,-0.411 0.219,-0.43C0.253,-0.457 0.29,-0.47 0.33,-0.47C0.437,-0.47 0.491,-0.413 0.491,-0.299L0.491,-0.05C0.493,-0.035 0.501,-0.027 0.514,-0.027L0.572,-0.027Z" style="fill-rule:nonzero;"/>
                    </g>
                </g>
                <g transform="matrix(1.04561,0,0,1.04561,-35.6204,-17.907)">
                    <path d="M391.407,386.728C391.407,385.99 391.203,385.448 390.866,385.079C390.51,384.688 389.988,384.458 389.275,384.458C388.263,384.458 387.543,384.881 387.098,385.694C387.095,385.701 382.888,393.59 382.888,393.59C382.787,393.78 382.779,394.007 382.866,394.204C382.954,394.402 383.127,394.548 383.337,394.6L384.204,394.818C384.445,394.879 384.701,394.807 384.876,394.629L390.686,388.701C390.692,388.696 390.697,388.69 390.702,388.685C391.161,388.185 391.407,387.536 391.407,386.728Z" style="fill-opacity:0.08;"/>
                </g>
            </g>
        </g>
        <g transform="matrix(4.2867,0,0,4.6296,-1002.1,-1767.7)">
            <g transform="matrix(7.52863,0,0,6.97101,363.058,477.455)">
                <path d="M0.194,0.012C0.153,0.012 0.119,0 0.093,-0.024C0.066,-0.048 0.052,-0.082 0.052,-0.126C0.052,-0.179 0.076,-0.22 0.123,-0.249C0.17,-0.277 0.246,-0.297 0.35,-0.308C0.35,-0.323 0.348,-0.338 0.345,-0.353C0.343,-0.368 0.337,-0.381 0.33,-0.392C0.323,-0.403 0.313,-0.412 0.3,-0.42C0.286,-0.427 0.27,-0.43 0.25,-0.43C0.222,-0.43 0.196,-0.425 0.171,-0.414C0.146,-0.403 0.124,-0.391 0.105,-0.378L0.073,-0.435C0.096,-0.45 0.123,-0.464 0.156,-0.477C0.189,-0.491 0.225,-0.498 0.264,-0.498C0.323,-0.498 0.366,-0.48 0.393,-0.444C0.42,-0.407 0.433,-0.359 0.433,-0.298L0.433,0L0.365,0L0.358,-0.058L0.355,-0.058C0.332,-0.039 0.307,-0.022 0.28,-0.009C0.253,0.005 0.225,0.012 0.194,0.012ZM0.218,-0.054C0.241,-0.054 0.263,-0.059 0.284,-0.07C0.305,-0.082 0.327,-0.098 0.35,-0.119L0.35,-0.254C0.309,-0.249 0.275,-0.242 0.248,-0.235C0.22,-0.228 0.198,-0.219 0.181,-0.209C0.164,-0.199 0.151,-0.188 0.143,-0.174C0.136,-0.162 0.132,-0.147 0.132,-0.132C0.132,-0.104 0.14,-0.084 0.157,-0.072C0.174,-0.06 0.194,-0.054 0.218,-0.054Z" style="fill-rule:nonzero;"/>
            </g>
            <g transform="matrix(9.03435,0,0,8.36521,368.66,477.455)">
                <path d="M0.139,0.05L0.114,0.184L-0.023,0.184L0.114,-0.496L0.225,-0.496L0.226,-0.439L0.229,-0.439C0.252,-0.46 0.276,-0.476 0.303,-0.489C0.329,-0.502 0.355,-0.508 0.38,-0.508C0.424,-0.508 0.458,-0.492 0.483,-0.461C0.508,-0.43 0.52,-0.385 0.52,-0.326C0.52,-0.279 0.513,-0.234 0.498,-0.194C0.483,-0.153 0.464,-0.117 0.439,-0.086C0.414,-0.055 0.386,-0.031 0.355,-0.014C0.323,0.003 0.29,0.012 0.256,0.012C0.235,0.012 0.215,0.007 0.198,-0.004C0.181,-0.014 0.166,-0.028 0.155,-0.047L0.153,-0.047L0.139,0.05ZM0.321,-0.396C0.306,-0.396 0.289,-0.392 0.27,-0.383C0.251,-0.374 0.234,-0.357 0.219,-0.334L0.181,-0.146C0.188,-0.13 0.198,-0.118 0.21,-0.111C0.221,-0.104 0.233,-0.1 0.246,-0.1C0.263,-0.1 0.28,-0.105 0.296,-0.116C0.312,-0.127 0.326,-0.141 0.339,-0.16C0.351,-0.179 0.361,-0.201 0.368,-0.226C0.375,-0.251 0.379,-0.279 0.379,-0.309C0.379,-0.339 0.374,-0.361 0.363,-0.375C0.352,-0.389 0.338,-0.396 0.321,-0.396Z" style="fill:rgb(255,75,75);fill-rule:nonzero;"/>
            </g>
            <g transform="matrix(9.03435,0,0,8.36521,373.656,477.455)">
                <path d="M0.029,-0.2C0.029,-0.246 0.037,-0.288 0.054,-0.326C0.07,-0.363 0.091,-0.396 0.117,-0.423C0.144,-0.45 0.173,-0.47 0.206,-0.486C0.239,-0.5 0.272,-0.508 0.305,-0.508C0.334,-0.508 0.359,-0.503 0.38,-0.494C0.401,-0.484 0.418,-0.47 0.431,-0.454C0.444,-0.437 0.453,-0.417 0.459,-0.395C0.464,-0.372 0.467,-0.348 0.467,-0.322C0.467,-0.31 0.466,-0.298 0.464,-0.286C0.462,-0.275 0.46,-0.264 0.457,-0.254C0.454,-0.243 0.452,-0.234 0.449,-0.227C0.446,-0.219 0.443,-0.213 0.441,-0.209L0.159,-0.209C0.157,-0.168 0.167,-0.138 0.189,-0.119C0.21,-0.1 0.237,-0.091 0.27,-0.091C0.285,-0.091 0.301,-0.095 0.318,-0.102C0.335,-0.109 0.349,-0.117 0.362,-0.126L0.41,-0.04C0.39,-0.026 0.365,-0.014 0.335,-0.004C0.305,0.007 0.271,0.012 0.232,0.012C0.202,0.012 0.174,0.007 0.15,-0.003C0.125,-0.012 0.103,-0.026 0.086,-0.045C0.068,-0.063 0.054,-0.085 0.044,-0.111C0.034,-0.137 0.029,-0.167 0.029,-0.2ZM0.35,-0.293C0.353,-0.304 0.355,-0.317 0.355,-0.33C0.355,-0.35 0.35,-0.367 0.341,-0.382C0.331,-0.396 0.313,-0.403 0.288,-0.403C0.265,-0.403 0.242,-0.394 0.22,-0.376C0.198,-0.357 0.181,-0.33 0.17,-0.293L0.35,-0.293Z" style="fill:rgb(255,75,75);fill-rule:nonzero;"/>
            </g>
            <g transform="matrix(9.03435,0,0,8.36521,378.137,477.455)">
                <path d="M0.171,0.213C0.141,0.213 0.11,0.207 0.078,0.195C0.046,0.184 0.016,0.166 -0.012,0.143L0.047,0.052C0.066,0.067 0.087,0.079 0.108,0.089C0.129,0.099 0.152,0.104 0.175,0.104C0.24,0.104 0.283,0.069 0.302,0L0.328,-0.088C0.306,-0.065 0.282,-0.047 0.257,-0.035C0.231,-0.022 0.204,-0.016 0.176,-0.016C0.134,-0.016 0.099,-0.03 0.072,-0.059C0.045,-0.087 0.031,-0.13 0.031,-0.189C0.031,-0.234 0.038,-0.275 0.053,-0.314C0.067,-0.353 0.086,-0.386 0.11,-0.415C0.133,-0.444 0.161,-0.466 0.192,-0.483C0.223,-0.5 0.256,-0.508 0.29,-0.508C0.313,-0.508 0.334,-0.502 0.353,-0.491C0.372,-0.479 0.387,-0.463 0.396,-0.443L0.399,-0.443L0.42,-0.496L0.531,-0.496L0.434,-0.008C0.419,0.066 0.389,0.121 0.344,0.158C0.299,0.195 0.241,0.213 0.171,0.213ZM0.229,-0.127C0.246,-0.127 0.263,-0.132 0.282,-0.141C0.301,-0.15 0.318,-0.167 0.334,-0.192L0.365,-0.349C0.356,-0.366 0.346,-0.378 0.335,-0.385C0.323,-0.392 0.311,-0.396 0.3,-0.396C0.283,-0.396 0.266,-0.391 0.251,-0.382C0.236,-0.372 0.222,-0.359 0.211,-0.342C0.2,-0.325 0.191,-0.305 0.184,-0.281C0.177,-0.259 0.173,-0.234 0.173,-0.207C0.173,-0.18 0.178,-0.16 0.188,-0.147C0.198,-0.134 0.212,-0.127 0.229,-0.127Z" style="fill:rgb(255,75,75);fill-rule:nonzero;"/>
            </g>
            <g transform="matrix(9.03435,0,0,8.36521,383.069,477.455)">
                <path d="M0.171,0.012C0.127,0.012 0.093,-0.004 0.068,-0.035C0.043,-0.066 0.031,-0.111 0.031,-0.17C0.031,-0.217 0.038,-0.262 0.053,-0.303C0.068,-0.344 0.087,-0.379 0.112,-0.41C0.137,-0.441 0.165,-0.465 0.197,-0.482C0.229,-0.499 0.262,-0.508 0.296,-0.508C0.319,-0.508 0.34,-0.502 0.36,-0.491C0.38,-0.479 0.395,-0.463 0.404,-0.443L0.406,-0.443L0.428,-0.496L0.537,-0.496L0.438,0L0.327,0L0.329,-0.065L0.326,-0.065C0.303,-0.042 0.278,-0.023 0.251,-0.009C0.224,0.005 0.197,0.012 0.171,0.012ZM0.231,-0.1C0.248,-0.1 0.266,-0.105 0.284,-0.116C0.304,-0.126 0.321,-0.145 0.337,-0.173L0.372,-0.349C0.364,-0.366 0.354,-0.378 0.342,-0.385C0.329,-0.392 0.317,-0.396 0.306,-0.396C0.289,-0.396 0.272,-0.391 0.256,-0.38C0.24,-0.369 0.226,-0.355 0.214,-0.336C0.201,-0.317 0.191,-0.295 0.184,-0.27C0.177,-0.245 0.173,-0.217 0.173,-0.187C0.173,-0.157 0.178,-0.135 0.189,-0.121C0.199,-0.107 0.213,-0.1 0.231,-0.1Z" style="fill:rgb(255,75,75);fill-rule:nonzero;"/>
            </g>
            <g transform="matrix(9.03435,0,0,8.36521,388.056,477.455)">
                <path d="M0.17,0.012C0.155,0.012 0.139,0.01 0.122,0.005C0.105,0.001 0.089,-0.005 0.074,-0.013C0.058,-0.021 0.043,-0.031 0.029,-0.043C0.014,-0.055 0.002,-0.069 -0.008,-0.084L0.071,-0.15C0.106,-0.109 0.141,-0.088 0.178,-0.088C0.197,-0.088 0.214,-0.093 0.228,-0.102C0.241,-0.111 0.248,-0.122 0.248,-0.135C0.248,-0.15 0.241,-0.162 0.226,-0.171C0.211,-0.18 0.19,-0.193 0.162,-0.209C0.134,-0.224 0.11,-0.243 0.091,-0.266C0.072,-0.288 0.062,-0.315 0.062,-0.346C0.062,-0.369 0.067,-0.391 0.077,-0.411C0.087,-0.431 0.101,-0.448 0.118,-0.463C0.135,-0.477 0.156,-0.488 0.179,-0.496C0.202,-0.504 0.227,-0.508 0.254,-0.508C0.288,-0.508 0.319,-0.501 0.345,-0.486C0.373,-0.471 0.396,-0.453 0.417,-0.432L0.342,-0.361C0.33,-0.374 0.317,-0.384 0.302,-0.393C0.287,-0.402 0.271,-0.406 0.254,-0.406C0.235,-0.406 0.219,-0.402 0.207,-0.393C0.196,-0.384 0.19,-0.372 0.19,-0.359C0.19,-0.351 0.192,-0.344 0.197,-0.338C0.202,-0.332 0.208,-0.327 0.216,-0.322C0.224,-0.317 0.233,-0.312 0.243,-0.307C0.252,-0.302 0.262,-0.296 0.272,-0.29C0.302,-0.274 0.327,-0.255 0.346,-0.234C0.366,-0.213 0.376,-0.185 0.376,-0.151C0.376,-0.127 0.371,-0.105 0.361,-0.085C0.35,-0.065 0.336,-0.048 0.318,-0.034C0.3,-0.019 0.278,-0.008 0.253,0C0.228,0.008 0.2,0.012 0.17,0.012Z" style="fill:rgb(255,75,75);fill-rule:nonzero;"/>
            </g>
            <g transform="matrix(9.03435,0,0,8.36521,391.887,477.455)">
                <path d="M0.431,0L0.32,0L0.322,-0.067L0.318,-0.067C0.295,-0.046 0.27,-0.027 0.243,-0.012C0.215,0.004 0.186,0.012 0.156,0.012C0.115,0.012 0.085,0.001 0.067,-0.021C0.048,-0.042 0.039,-0.074 0.039,-0.116C0.039,-0.127 0.04,-0.139 0.041,-0.15C0.042,-0.161 0.044,-0.173 0.047,-0.186L0.109,-0.496L0.245,-0.496L0.187,-0.203C0.184,-0.193 0.182,-0.184 0.181,-0.177C0.18,-0.17 0.179,-0.163 0.179,-0.156C0.179,-0.122 0.196,-0.105 0.229,-0.105C0.257,-0.105 0.29,-0.126 0.328,-0.169L0.392,-0.496L0.529,-0.496L0.431,0Z" style="fill:rgb(255,75,75);fill-rule:nonzero;"/>
            </g>
            <g transform="matrix(9.03435,0,0,8.36521,396.811,477.455)">
                <path d="M0.17,0.012C0.155,0.012 0.139,0.01 0.122,0.005C0.105,0.001 0.089,-0.005 0.074,-0.013C0.058,-0.021 0.043,-0.031 0.029,-0.043C0.014,-0.055 0.002,-0.069 -0.008,-0.084L0.071,-0.15C0.106,-0.109 0.141,-0.088 0.178,-0.088C0.197,-0.088 0.214,-0.093 0.228,-0.102C0.241,-0.111 0.248,-0.122 0.248,-0.135C0.248,-0.15 0.241,-0.162 0.226,-0.171C0.211,-0.18 0.19,-0.193 0.162,-0.209C0.134,-0.224 0.11,-0.243 0.091,-0.266C0.072,-0.288 0.062,-0.315 0.062,-0.346C0.062,-0.369 0.067,-0.391 0.077,-0.411C0.087,-0.431 0.101,-0.448 0.118,-0.463C0.135,-0.477 0.156,-0.488 0.179,-0.496C0.202,-0.504 0.227,-0.508 0.254,-0.508C0.288,-0.508 0.319,-0.501 0.345,-0.486C0.373,-0.471 0.396,-0.453 0.417,-0.432L0.342,-0.361C0.33,-0.374 0.317,-0.384 0.302,-0.393C0.287,-0.402 0.271,-0.406 0.254,-0.406C0.235,-0.406 0.219,-0.402 0.207,-0.393C0.196,-0.384 0.19,-0.372 0.19,-0.359C0.19,-0.351 0.192,-0.344 0.197,-0.338C0.202,-0.332 0.208,-0.327 0.216,-0.322C0.224,-0.317 0.233,-0.312 0.243,-0.307C0.252,-0.302 0.262,-0.296 0.272,-0.29C0.302,-0.274 0.327,-0.255 0.346,-0.234C0.366,-0.213 0.376,-0.185 0.376,-0.151C0.376,-0.127 0.371,-0.105 0.361,-0.085C0.35,-0.065 0.336,-0.048 0.318,-0.034C0.3,-0.019 0.278,-0.008 0.253,0C0.228,0.008 0.2,0.012 0.17,0.012Z" style="fill:rgb(255,75,75);fill-rule:nonzero;"/>
            </g>
            <g transform="matrix(9.03435,0,0,8.36521,400.641,477.455)">
                <rect x="0.04" y="-0.269" width="0.22" height="0.039" style="fill:rgb(255,75,75);fill-rule:nonzero;"/>
            </g>
            <g transform="matrix(9.03435,0,0,8.36521,403.342,477.455)">
                <path d="M0.276,-0.679C0.266,-0.684 0.256,-0.688 0.247,-0.69C0.237,-0.692 0.227,-0.693 0.218,-0.693C0.193,-0.693 0.174,-0.684 0.162,-0.665C0.149,-0.646 0.143,-0.619 0.143,-0.584L0.143,-0.48L0.254,-0.48L0.254,-0.442L0.143,-0.442L0.143,0L0.099,0L0.099,-0.442L0.033,-0.442L0.033,-0.476L0.099,-0.48L0.099,-0.587C0.099,-0.635 0.109,-0.671 0.13,-0.695C0.151,-0.719 0.18,-0.731 0.218,-0.731C0.241,-0.731 0.265,-0.726 0.288,-0.715L0.276,-0.679Z" style="fill:rgb(255,75,75);fill-rule:nonzero;"/>
            </g>
            <g transform="matrix(9.03435,0,0,8.36521,405.719,477.455)">
                <path d="M0.092,-0.48L0.13,-0.48L0.134,-0.391L0.137,-0.391C0.153,-0.421 0.172,-0.445 0.196,-0.464C0.219,-0.483 0.244,-0.492 0.273,-0.492C0.282,-0.492 0.291,-0.491 0.298,-0.49C0.305,-0.489 0.313,-0.486 0.321,-0.482L0.311,-0.442C0.303,-0.445 0.296,-0.448 0.29,-0.449C0.284,-0.45 0.276,-0.45 0.267,-0.45C0.246,-0.45 0.223,-0.441 0.2,-0.423C0.176,-0.404 0.155,-0.372 0.136,-0.327L0.136,0L0.092,0L0.092,-0.48Z" style="fill:rgb(255,75,75);fill-rule:nonzero;"/>
            </g>
            <g transform="matrix(9.03435,0,0,8.36521,408.492,477.455)">
                <path d="M0.267,0.012C0.238,0.012 0.211,0.006 0.185,-0.005C0.159,-0.016 0.136,-0.033 0.117,-0.054C0.097,-0.075 0.081,-0.102 0.07,-0.133C0.058,-0.164 0.052,-0.199 0.052,-0.239C0.052,-0.279 0.058,-0.315 0.07,-0.346C0.081,-0.378 0.097,-0.405 0.117,-0.426C0.136,-0.447 0.159,-0.464 0.185,-0.475C0.211,-0.486 0.238,-0.492 0.267,-0.492C0.296,-0.492 0.323,-0.486 0.349,-0.475C0.376,-0.464 0.399,-0.447 0.419,-0.426C0.438,-0.405 0.454,-0.378 0.466,-0.346C0.477,-0.315 0.483,-0.279 0.483,-0.239C0.483,-0.199 0.477,-0.164 0.466,-0.133C0.454,-0.102 0.438,-0.075 0.419,-0.054C0.399,-0.033 0.376,-0.016 0.349,-0.005C0.323,0.006 0.296,0.012 0.267,0.012ZM0.267,-0.027C0.291,-0.027 0.314,-0.032 0.335,-0.043C0.356,-0.053 0.374,-0.067 0.389,-0.086C0.404,-0.105 0.415,-0.127 0.424,-0.153C0.433,-0.179 0.437,-0.208 0.437,-0.239C0.437,-0.271 0.433,-0.3 0.424,-0.326C0.415,-0.352 0.404,-0.375 0.389,-0.394C0.374,-0.412 0.356,-0.427 0.335,-0.438C0.314,-0.448 0.291,-0.453 0.267,-0.453C0.243,-0.453 0.221,-0.448 0.2,-0.438C0.179,-0.427 0.162,-0.412 0.147,-0.394C0.132,-0.375 0.12,-0.352 0.111,-0.326C0.102,-0.3 0.098,-0.271 0.098,-0.239C0.098,-0.208 0.102,-0.179 0.111,-0.153C0.12,-0.127 0.132,-0.105 0.147,-0.086C0.162,-0.067 0.179,-0.053 0.2,-0.043C0.221,-0.032 0.243,-0.027 0.267,-0.027Z" style="fill:rgb(255,75,75);fill-rule:nonzero;"/>
            </g>
            <g transform="matrix(9.03435,0,0,8.36521,413.325,477.455)">
                <path d="M0.092,-0.48L0.13,-0.48L0.134,-0.406L0.137,-0.406C0.162,-0.431 0.187,-0.451 0.213,-0.468C0.239,-0.484 0.269,-0.492 0.302,-0.492C0.352,-0.492 0.389,-0.477 0.412,-0.447C0.435,-0.417 0.447,-0.371 0.447,-0.308L0.447,0L0.403,0L0.403,-0.302C0.403,-0.353 0.395,-0.391 0.378,-0.416C0.361,-0.44 0.332,-0.452 0.293,-0.452C0.264,-0.452 0.238,-0.445 0.215,-0.43C0.192,-0.414 0.165,-0.392 0.136,-0.362L0.136,0L0.092,0L0.092,-0.48Z" style="fill:rgb(255,75,75);fill-rule:nonzero;"/>
            </g>
            <g transform="matrix(9.03435,0,0,8.36521,418.132,477.455)">
                <path d="M0.223,0.012C0.2,0.012 0.18,0.008 0.165,0.001C0.15,-0.006 0.137,-0.015 0.128,-0.028C0.119,-0.041 0.112,-0.056 0.109,-0.074C0.105,-0.092 0.103,-0.112 0.103,-0.133L0.103,-0.442L0.028,-0.442L0.028,-0.476L0.104,-0.48L0.11,-0.619L0.148,-0.619L0.148,-0.48L0.287,-0.48L0.287,-0.442L0.148,-0.442L0.148,-0.129C0.148,-0.114 0.149,-0.1 0.152,-0.087C0.154,-0.075 0.158,-0.065 0.164,-0.056C0.17,-0.047 0.178,-0.04 0.189,-0.035C0.199,-0.029 0.212,-0.027 0.229,-0.027C0.238,-0.027 0.249,-0.029 0.26,-0.032C0.271,-0.035 0.28,-0.038 0.289,-0.042L0.301,-0.006C0.287,-0.001 0.273,0.004 0.259,0.007C0.245,0.01 0.233,0.012 0.223,0.012Z" style="fill:rgb(255,75,75);fill-rule:nonzero;"/>
            </g>
            <g transform="matrix(9.03435,0,0,8.36521,420.851,477.455)">
                <path d="M0.274,0.012C0.243,0.012 0.215,0.006 0.188,-0.005C0.161,-0.016 0.137,-0.033 0.117,-0.055C0.097,-0.076 0.081,-0.102 0.07,-0.134C0.058,-0.165 0.052,-0.2 0.052,-0.239C0.052,-0.278 0.058,-0.314 0.07,-0.345C0.081,-0.376 0.097,-0.403 0.117,-0.425C0.136,-0.446 0.159,-0.463 0.184,-0.474C0.209,-0.486 0.234,-0.492 0.261,-0.492C0.318,-0.492 0.363,-0.473 0.396,-0.434C0.429,-0.395 0.445,-0.341 0.445,-0.27L0.445,-0.252C0.445,-0.246 0.444,-0.24 0.443,-0.234L0.097,-0.234C0.098,-0.204 0.102,-0.176 0.111,-0.151C0.12,-0.125 0.132,-0.103 0.148,-0.085C0.163,-0.066 0.182,-0.052 0.204,-0.042C0.226,-0.031 0.251,-0.026 0.278,-0.026C0.304,-0.026 0.328,-0.03 0.348,-0.038C0.37,-0.045 0.389,-0.056 0.407,-0.069L0.425,-0.035C0.406,-0.024 0.385,-0.013 0.362,-0.003C0.339,0.007 0.309,0.012 0.274,0.012ZM0.403,-0.27C0.403,-0.332 0.39,-0.378 0.365,-0.408C0.34,-0.439 0.305,-0.454 0.262,-0.454C0.241,-0.454 0.222,-0.45 0.203,-0.442C0.184,-0.433 0.168,-0.421 0.153,-0.405C0.138,-0.389 0.125,-0.37 0.116,-0.347C0.106,-0.324 0.1,-0.299 0.097,-0.27L0.403,-0.27Z" style="fill:rgb(255,75,75);fill-rule:nonzero;"/>
            </g>
            <g transform="matrix(9.03435,0,0,8.36521,425.215,477.455)">
                <path d="M0.092,-0.48L0.13,-0.48L0.134,-0.406L0.137,-0.406C0.162,-0.431 0.187,-0.451 0.213,-0.468C0.239,-0.484 0.269,-0.492 0.302,-0.492C0.352,-0.492 0.389,-0.477 0.412,-0.447C0.435,-0.417 0.447,-0.371 0.447,-0.308L0.447,0L0.403,0L0.403,-0.302C0.403,-0.353 0.395,-0.391 0.378,-0.416C0.361,-0.44 0.332,-0.452 0.293,-0.452C0.264,-0.452 0.238,-0.445 0.215,-0.43C0.192,-0.414 0.165,-0.392 0.136,-0.362L0.136,0L0.092,0L0.092,-0.48Z" style="fill:rgb(255,75,75);fill-rule:nonzero;"/>
            </g>
            <g transform="matrix(9.03435,0,0,8.36521,430.021,477.455)">
                <path d="M0.251,0.012C0.19,0.012 0.142,-0.01 0.106,-0.053C0.07,-0.096 0.052,-0.158 0.052,-0.239C0.052,-0.278 0.058,-0.313 0.069,-0.344C0.08,-0.375 0.096,-0.402 0.116,-0.424C0.135,-0.446 0.158,-0.463 0.184,-0.474C0.209,-0.486 0.236,-0.492 0.265,-0.492C0.294,-0.492 0.32,-0.487 0.342,-0.476C0.363,-0.466 0.386,-0.452 0.41,-0.433L0.408,-0.521L0.408,-0.719L0.452,-0.719L0.452,0L0.414,0L0.41,-0.062L0.407,-0.062C0.388,-0.043 0.365,-0.025 0.339,-0.011C0.312,0.004 0.283,0.012 0.251,0.012ZM0.257,-0.027C0.284,-0.027 0.309,-0.034 0.334,-0.048C0.358,-0.061 0.383,-0.081 0.408,-0.106L0.408,-0.391C0.383,-0.414 0.359,-0.43 0.337,-0.439C0.314,-0.448 0.291,-0.453 0.268,-0.453C0.244,-0.453 0.222,-0.448 0.201,-0.437C0.18,-0.426 0.163,-0.41 0.148,-0.392C0.133,-0.373 0.121,-0.35 0.112,-0.324C0.103,-0.297 0.099,-0.269 0.099,-0.239C0.099,-0.207 0.102,-0.178 0.11,-0.152C0.117,-0.126 0.127,-0.104 0.14,-0.086C0.153,-0.067 0.17,-0.053 0.19,-0.043C0.209,-0.032 0.232,-0.027 0.257,-0.027Z" style="fill:rgb(255,75,75);fill-rule:nonzero;"/>
            </g>
            <g transform="matrix(7.02672,0,0,6.50628,436.742,477.455)">
                <path d="M0.274,0.012C0.242,0.012 0.212,0.006 0.184,-0.005C0.156,-0.016 0.132,-0.033 0.112,-0.055C0.091,-0.076 0.075,-0.103 0.064,-0.135C0.052,-0.166 0.046,-0.202 0.046,-0.242C0.046,-0.283 0.052,-0.319 0.065,-0.35C0.078,-0.382 0.095,-0.409 0.116,-0.431C0.137,-0.453 0.162,-0.47 0.191,-0.481C0.219,-0.492 0.249,-0.498 0.28,-0.498C0.312,-0.498 0.339,-0.492 0.362,-0.481C0.385,-0.47 0.405,-0.456 0.422,-0.441L0.38,-0.387C0.366,-0.4 0.351,-0.41 0.336,-0.418C0.32,-0.426 0.302,-0.43 0.283,-0.43C0.261,-0.43 0.241,-0.426 0.222,-0.417C0.203,-0.407 0.187,-0.395 0.174,-0.378C0.161,-0.361 0.15,-0.342 0.142,-0.319C0.135,-0.296 0.131,-0.27 0.131,-0.242C0.131,-0.214 0.135,-0.189 0.142,-0.166C0.149,-0.143 0.16,-0.124 0.172,-0.108C0.186,-0.091 0.201,-0.079 0.22,-0.07C0.239,-0.061 0.259,-0.056 0.281,-0.056C0.304,-0.056 0.325,-0.061 0.344,-0.07C0.363,-0.08 0.38,-0.092 0.395,-0.105L0.431,-0.05C0.409,-0.031 0.385,-0.016 0.358,-0.005C0.331,0.006 0.303,0.012 0.274,0.012Z" style="fill-rule:nonzero;"/>
            </g>
            <g transform="matrix(7.02672,0,0,6.50628,439.799,477.455)">
                <path d="M0.271,0.012C0.241,0.012 0.213,0.006 0.186,-0.005C0.159,-0.016 0.135,-0.033 0.114,-0.055C0.093,-0.076 0.077,-0.103 0.065,-0.135C0.052,-0.166 0.046,-0.202 0.046,-0.242C0.046,-0.283 0.052,-0.319 0.065,-0.35C0.077,-0.382 0.093,-0.409 0.114,-0.431C0.135,-0.453 0.159,-0.47 0.186,-0.481C0.213,-0.492 0.241,-0.498 0.271,-0.498C0.301,-0.498 0.33,-0.492 0.357,-0.481C0.384,-0.47 0.407,-0.453 0.428,-0.431C0.449,-0.409 0.465,-0.382 0.477,-0.35C0.49,-0.319 0.496,-0.283 0.496,-0.242C0.496,-0.202 0.49,-0.166 0.477,-0.135C0.465,-0.103 0.449,-0.076 0.428,-0.055C0.407,-0.033 0.384,-0.016 0.357,-0.005C0.33,0.006 0.301,0.012 0.271,0.012ZM0.271,-0.056C0.292,-0.056 0.311,-0.061 0.328,-0.07C0.345,-0.079 0.36,-0.091 0.373,-0.108C0.385,-0.124 0.394,-0.143 0.401,-0.166C0.408,-0.189 0.411,-0.214 0.411,-0.242C0.411,-0.27 0.408,-0.296 0.401,-0.319C0.394,-0.342 0.385,-0.361 0.373,-0.378C0.36,-0.395 0.345,-0.407 0.328,-0.417C0.311,-0.426 0.292,-0.43 0.271,-0.43C0.25,-0.43 0.231,-0.426 0.214,-0.417C0.197,-0.407 0.182,-0.395 0.17,-0.378C0.157,-0.361 0.148,-0.342 0.141,-0.319C0.134,-0.296 0.131,-0.27 0.131,-0.242C0.131,-0.214 0.134,-0.189 0.141,-0.166C0.148,-0.143 0.157,-0.124 0.17,-0.108C0.182,-0.091 0.197,-0.079 0.214,-0.07C0.231,-0.061 0.25,-0.056 0.271,-0.056Z" style="fill-rule:nonzero;"/>
            </g>
            <g transform="matrix(7.02672,0,0,6.50628,443.608,477.455)">
                <path d="M0.082,-0.486L0.15,-0.486L0.157,-0.416L0.16,-0.416C0.181,-0.439 0.204,-0.459 0.23,-0.474C0.255,-0.49 0.282,-0.498 0.311,-0.498C0.348,-0.498 0.378,-0.49 0.399,-0.473C0.42,-0.457 0.435,-0.434 0.445,-0.405C0.47,-0.433 0.496,-0.456 0.522,-0.472C0.547,-0.49 0.575,-0.498 0.605,-0.498C0.655,-0.498 0.692,-0.482 0.717,-0.45C0.741,-0.418 0.753,-0.371 0.753,-0.308L0.753,0L0.671,0L0.671,-0.297C0.671,-0.343 0.664,-0.376 0.649,-0.397C0.634,-0.417 0.612,-0.427 0.581,-0.427C0.544,-0.427 0.504,-0.402 0.459,-0.352L0.459,0L0.377,0L0.377,-0.297C0.377,-0.343 0.37,-0.376 0.355,-0.397C0.34,-0.417 0.317,-0.427 0.286,-0.427C0.249,-0.427 0.209,-0.402 0.164,-0.352L0.164,0L0.082,0L0.082,-0.486Z" style="fill-rule:nonzero;"/>
            </g>
            <g transform="matrix(7.02672,0,0,6.50628,449.433,477.455)">
                <path d="M0.082,-0.486L0.15,-0.486L0.157,-0.43L0.16,-0.43C0.182,-0.449 0.206,-0.465 0.233,-0.478C0.259,-0.491 0.286,-0.498 0.315,-0.498C0.346,-0.498 0.374,-0.492 0.398,-0.481C0.422,-0.469 0.442,-0.452 0.458,-0.431C0.474,-0.409 0.486,-0.383 0.495,-0.353C0.503,-0.322 0.507,-0.288 0.507,-0.25C0.507,-0.209 0.501,-0.172 0.49,-0.14C0.479,-0.107 0.463,-0.08 0.444,-0.057C0.425,-0.034 0.402,-0.017 0.377,-0.006C0.352,0.006 0.325,0.012 0.297,0.012C0.274,0.012 0.252,0.007 0.23,-0.003C0.207,-0.013 0.185,-0.027 0.162,-0.044L0.164,0.041L0.164,0.205L0.082,0.205L0.082,-0.486ZM0.283,-0.057C0.303,-0.057 0.322,-0.062 0.339,-0.07C0.356,-0.08 0.37,-0.092 0.383,-0.109C0.395,-0.125 0.405,-0.145 0.411,-0.169C0.419,-0.193 0.422,-0.22 0.422,-0.25C0.422,-0.277 0.42,-0.301 0.415,-0.323C0.41,-0.345 0.403,-0.364 0.393,-0.38C0.382,-0.395 0.369,-0.407 0.353,-0.416C0.336,-0.425 0.317,-0.429 0.294,-0.429C0.273,-0.429 0.253,-0.423 0.232,-0.412C0.211,-0.401 0.188,-0.384 0.164,-0.363L0.164,-0.108C0.186,-0.089 0.207,-0.076 0.228,-0.069C0.249,-0.061 0.267,-0.057 0.283,-0.057Z" style="fill-rule:nonzero;"/>
            </g>
            <g transform="matrix(7.02672,0,0,6.50628,453.234,477.455)">
                <path d="M0.194,0.012C0.153,0.012 0.119,0 0.093,-0.024C0.066,-0.048 0.052,-0.082 0.052,-0.126C0.052,-0.179 0.076,-0.22 0.123,-0.249C0.17,-0.277 0.246,-0.297 0.35,-0.308C0.35,-0.323 0.348,-0.338 0.345,-0.353C0.343,-0.368 0.337,-0.381 0.33,-0.392C0.323,-0.403 0.313,-0.412 0.3,-0.42C0.286,-0.427 0.27,-0.43 0.25,-0.43C0.222,-0.43 0.196,-0.425 0.171,-0.414C0.146,-0.403 0.124,-0.391 0.105,-0.378L0.073,-0.435C0.096,-0.45 0.123,-0.464 0.156,-0.477C0.189,-0.491 0.225,-0.498 0.264,-0.498C0.323,-0.498 0.366,-0.48 0.393,-0.444C0.42,-0.407 0.433,-0.359 0.433,-0.298L0.433,0L0.365,0L0.358,-0.058L0.355,-0.058C0.332,-0.039 0.307,-0.022 0.28,-0.009C0.253,0.005 0.225,0.012 0.194,0.012ZM0.218,-0.054C0.241,-0.054 0.263,-0.059 0.284,-0.07C0.305,-0.082 0.327,-0.098 0.35,-0.119L0.35,-0.254C0.309,-0.249 0.275,-0.242 0.248,-0.235C0.22,-0.228 0.198,-0.219 0.181,-0.209C0.164,-0.199 0.151,-0.188 0.143,-0.174C0.136,-0.162 0.132,-0.147 0.132,-0.132C0.132,-0.104 0.14,-0.084 0.157,-0.072C0.174,-0.06 0.194,-0.054 0.218,-0.054Z" style="fill-rule:nonzero;"/>
            </g>
            <g transform="matrix(7.02672,0,0,6.50628,456.776,477.455)">
                <path d="M0.082,-0.486L0.15,-0.486L0.157,-0.416L0.16,-0.416C0.183,-0.439 0.208,-0.459 0.234,-0.474C0.259,-0.49 0.289,-0.498 0.323,-0.498C0.374,-0.498 0.412,-0.482 0.436,-0.45C0.459,-0.418 0.471,-0.371 0.471,-0.308L0.471,0L0.389,0L0.389,-0.297C0.389,-0.343 0.382,-0.376 0.367,-0.397C0.352,-0.417 0.329,-0.427 0.297,-0.427C0.272,-0.427 0.249,-0.421 0.23,-0.408C0.211,-0.395 0.189,-0.377 0.164,-0.352L0.164,0L0.082,0L0.082,-0.486Z" style="fill-rule:nonzero;"/>
            </g>
            <g transform="matrix(7.02672,0,0,6.50628,460.619,477.455)">
                <path d="M0.082,-0.486L0.164,-0.486L0.164,0L0.082,0L0.082,-0.486ZM0.124,-0.586C0.108,-0.586 0.095,-0.591 0.084,-0.601C0.073,-0.611 0.067,-0.624 0.067,-0.639C0.067,-0.655 0.073,-0.668 0.084,-0.678C0.095,-0.687 0.108,-0.692 0.124,-0.692C0.14,-0.692 0.154,-0.687 0.165,-0.678C0.175,-0.668 0.181,-0.655 0.181,-0.639C0.181,-0.624 0.175,-0.611 0.165,-0.601C0.154,-0.591 0.14,-0.586 0.124,-0.586Z" style="fill-rule:nonzero;"/>
            </g>
            <g transform="matrix(7.02672,0,0,6.50628,462.348,477.455)">
                <path d="M0.271,0.012C0.241,0.012 0.213,0.006 0.186,-0.005C0.159,-0.016 0.135,-0.033 0.114,-0.055C0.093,-0.076 0.077,-0.103 0.065,-0.135C0.052,-0.166 0.046,-0.202 0.046,-0.242C0.046,-0.283 0.052,-0.319 0.065,-0.35C0.077,-0.382 0.093,-0.409 0.114,-0.431C0.135,-0.453 0.159,-0.47 0.186,-0.481C0.213,-0.492 0.241,-0.498 0.271,-0.498C0.301,-0.498 0.33,-0.492 0.357,-0.481C0.384,-0.47 0.407,-0.453 0.428,-0.431C0.449,-0.409 0.465,-0.382 0.477,-0.35C0.49,-0.319 0.496,-0.283 0.496,-0.242C0.496,-0.202 0.49,-0.166 0.477,-0.135C0.465,-0.103 0.449,-0.076 0.428,-0.055C0.407,-0.033 0.384,-0.016 0.357,-0.005C0.33,0.006 0.301,0.012 0.271,0.012ZM0.271,-0.056C0.292,-0.056 0.311,-0.061 0.328,-0.07C0.345,-0.079 0.36,-0.091 0.373,-0.108C0.385,-0.124 0.394,-0.143 0.401,-0.166C0.408,-0.189 0.411,-0.214 0.411,-0.242C0.411,-0.27 0.408,-0.296 0.401,-0.319C0.394,-0.342 0.385,-0.361 0.373,-0.378C0.36,-0.395 0.345,-0.407 0.328,-0.417C0.311,-0.426 0.292,-0.43 0.271,-0.43C0.25,-0.43 0.231,-0.426 0.214,-0.417C0.197,-0.407 0.182,-0.395 0.17,-0.378C0.157,-0.361 0.148,-0.342 0.141,-0.319C0.134,-0.296 0.131,-0.27 0.131,-0.242C0.131,-0.214 0.134,-0.189 0.141,-0.166C0.148,-0.143 0.157,-0.124 0.17,-0.108C0.182,-0.091 0.197,-0.079 0.214,-0.07C0.231,-0.061 0.25,-0.056 0.271,-0.056Z" style="fill-rule:nonzero;"/>
            </g>
            <g transform="matrix(7.02672,0,0,6.50628,466.156,477.455)">
                <path d="M0.082,-0.486L0.15,-0.486L0.157,-0.416L0.16,-0.416C0.183,-0.439 0.208,-0.459 0.234,-0.474C0.259,-0.49 0.289,-0.498 0.323,-0.498C0.374,-0.498 0.412,-0.482 0.436,-0.45C0.459,-0.418 0.471,-0.371 0.471,-0.308L0.471,0L0.389,0L0.389,-0.297C0.389,-0.343 0.382,-0.376 0.367,-0.397C0.352,-0.417 0.329,-0.427 0.297,-0.427C0.272,-0.427 0.249,-0.421 0.23,-0.408C0.211,-0.395 0.189,-0.377 0.164,-0.352L0.164,0L0.082,0L0.082,-0.486Z" style="fill-rule:nonzero;"/>
            </g>
        </g>
    </g>
</svg>
